<?xml version="1.0" encoding="UTF-8"?> <!-- Generator: Adobe Illustrator 15.0.0, SVG Export Plug-In . SVG Version: 6.00 Build 0) --> <svg xmlns="http://www.w3.org/2000/svg" xmlns:xlink="http://www.w3.org/1999/xlink" id="Calque_1" x="0px" y="0px" width="406px" height="61px" viewBox="0 0 406 61" xml:space="preserve"> <g> <g> <path fill="#424142" d="M74.092,58.684v-8.627h1.142v7.609h4.249v1.018H74.092z"></path> <path fill="#424142" d="M84.195,51.197v-1.229h1.136v0.972c0,0.525-0.061,0.904-0.183,1.135c-0.169,0.318-0.432,0.558-0.789,0.719 l-0.259-0.418c0.212-0.086,0.37-0.223,0.474-0.409s0.162-0.442,0.173-0.769H84.195z"></path> <path fill="#424142" d="M90.344,58.684l3.313-8.627h1.23l3.531,8.627h-1.301l-1.006-2.613h-3.607l-0.947,2.613H90.344z M92.833,55.141h2.925l-0.9-2.389c-0.274-0.727-0.479-1.322-0.612-1.789c-0.11,0.553-0.265,1.102-0.465,1.647L92.833,55.141z"></path> <path fill="#424142" d="M105.12,58.684l-3.343-8.627h1.236l2.242,6.268c0.18,0.502,0.331,0.973,0.453,1.412 c0.133-0.471,0.288-0.941,0.465-1.412l2.331-6.268h1.165l-3.378,8.627H105.12z"></path> <path fill="#424142" d="M114.936,58.684v-8.627h6.238v1.018h-5.096v2.643h4.772v1.012h-4.772v2.938h5.296v1.018H114.936z"></path> <path fill="#424142" d="M127.157,58.684v-8.627h1.171l4.531,6.773v-6.773h1.095v8.627h-1.171l-4.532-6.779v6.779H127.157z"></path> <path fill="#424142" d="M140.286,58.684v-8.627h1.142v8.627H140.286z"></path> <path fill="#424142" d="M147.676,58.684v-8.627h3.826c0.769,0,1.354,0.077,1.753,0.232c0.4,0.154,0.72,0.428,0.959,0.82 s0.359,0.826,0.359,1.301c0,0.611-0.198,1.128-0.594,1.548c-0.396,0.42-1.008,0.687-1.836,0.8c0.302,0.146,0.532,0.289,0.689,0.43 c0.333,0.307,0.649,0.689,0.947,1.148l1.5,2.348h-1.436l-1.142-1.795c-0.333-0.518-0.608-0.914-0.824-1.189 c-0.216-0.273-0.409-0.467-0.58-0.576c-0.171-0.109-0.344-0.186-0.521-0.229c-0.129-0.027-0.341-0.041-0.635-0.041h-1.324v3.831 H147.676z M148.818,53.863h2.454c0.521,0,0.93-0.053,1.224-0.162c0.294-0.107,0.518-0.279,0.671-0.518 c0.153-0.236,0.229-0.494,0.229-0.773c0-0.408-0.148-0.744-0.444-1.006c-0.296-0.264-0.764-0.395-1.404-0.395h-2.73V53.863z"></path> <path fill="#424142" d="M168.148,58.684v-8.627h2.972c0.671,0,1.183,0.041,1.536,0.123c0.494,0.113,0.916,0.32,1.265,0.618 c0.455,0.384,0.795,0.876,1.021,1.474c0.226,0.599,0.338,1.282,0.338,2.051c0,0.656-0.077,1.236-0.229,1.742 s-0.349,0.926-0.588,1.257s-0.501,0.593-0.786,0.782c-0.285,0.191-0.628,0.335-1.03,0.434c-0.402,0.098-0.864,0.146-1.386,0.146 H168.148z M169.29,57.666h1.842c0.569,0,1.015-0.054,1.339-0.16c0.324-0.105,0.582-0.254,0.774-0.447 c0.271-0.27,0.481-0.634,0.633-1.091c0.151-0.457,0.227-1.011,0.227-1.663c0-0.902-0.148-1.596-0.444-2.08 c-0.296-0.484-0.656-0.809-1.08-0.974c-0.306-0.118-0.798-0.177-1.477-0.177h-1.812V57.666z"></path> <path fill="#424142" d="M181.094,58.684v-8.627h6.238v1.018h-5.096v2.643h4.772v1.012h-4.772v2.938h5.296v1.018H181.094z"></path> <path fill="#424142" d="M200.848,58.684v-8.627h1.142v7.609h4.249v1.018H200.848z"></path> <path fill="#424142" d="M210.951,51.197v-1.229h1.136v0.972c0,0.525-0.061,0.904-0.182,1.135 c-0.169,0.318-0.432,0.558-0.789,0.719l-0.259-0.418c0.212-0.086,0.369-0.223,0.474-0.409c0.104-0.187,0.162-0.442,0.174-0.769 H210.951z"></path> <path fill="#424142" d="M218.241,58.684v-8.627h1.142v8.627H218.241z"></path> <path fill="#424142" d="M225.579,58.684v-8.627h1.719l2.042,6.107c0.188,0.57,0.325,0.995,0.412,1.277 c0.098-0.313,0.251-0.774,0.459-1.383l2.065-6.002h1.536v8.627h-1.101v-7.221l-2.507,7.221h-1.03l-2.495-7.345v7.345H225.579z"></path> <path fill="#424142" d="M239.837,58.684v-8.627h1.719l2.042,6.107c0.188,0.57,0.325,0.995,0.412,1.277 c0.098-0.313,0.251-0.774,0.459-1.383l2.065-6.002h1.536v8.627h-1.101v-7.221l-2.507,7.221h-1.03l-2.495-7.345v7.345H239.837z"></path> <path fill="#424142" d="M253.784,54.481c0-1.432,0.384-2.553,1.153-3.363c0.769-0.81,1.762-1.215,2.978-1.215 c0.797,0,1.515,0.19,2.154,0.571c0.639,0.38,1.127,0.91,1.462,1.592c0.336,0.68,0.503,1.452,0.503,2.315 c0,0.874-0.176,1.657-0.529,2.349c-0.353,0.689-0.854,1.213-1.501,1.568c-0.646,0.354-1.346,0.531-2.095,0.531 c-0.812,0-1.538-0.195-2.178-0.588s-1.124-0.928-1.453-1.606C253.948,55.957,253.784,55.238,253.784,54.481z M254.961,54.5 c0,1.039,0.279,1.857,0.839,2.457c0.559,0.598,1.26,0.896,2.104,0.896c0.859,0,1.566-0.302,2.122-0.906 c0.555-0.604,0.832-1.461,0.832-2.572c0-0.701-0.118-1.314-0.355-1.838c-0.237-0.524-0.585-0.93-1.042-1.219 c-0.457-0.288-0.97-0.433-1.539-0.433c-0.809,0-1.504,0.278-2.086,0.833C255.252,52.273,254.961,53.201,254.961,54.5z"></path> <path fill="#424142" d="M267.678,58.684v-8.627h3.236c0.659,0,1.188,0.087,1.587,0.262c0.397,0.174,0.71,0.443,0.936,0.806 c0.226,0.363,0.338,0.743,0.338,1.14c0,0.368-0.1,0.715-0.3,1.041s-0.502,0.588-0.906,0.789c0.521,0.152,0.923,0.414,1.203,0.782 s0.421,0.804,0.421,1.307c0,0.403-0.085,0.78-0.256,1.127s-0.382,0.614-0.633,0.804c-0.251,0.188-0.565,0.33-0.944,0.426 c-0.379,0.097-0.843,0.145-1.392,0.145H267.678z M268.819,53.682h1.865c0.507,0,0.869-0.033,1.089-0.101 c0.291-0.086,0.51-0.229,0.656-0.429c0.147-0.201,0.221-0.451,0.221-0.754c0-0.287-0.068-0.539-0.206-0.756 c-0.137-0.219-0.333-0.367-0.588-0.447c-0.256-0.081-0.693-0.121-1.312-0.121h-1.725V53.682z M268.819,57.666h2.148 c0.368,0,0.627-0.014,0.776-0.041c0.263-0.048,0.482-0.127,0.659-0.236s0.321-0.27,0.436-0.479 c0.113-0.21,0.171-0.452,0.171-0.727c0-0.321-0.083-0.602-0.247-0.839c-0.165-0.237-0.394-0.404-0.686-0.5 c-0.293-0.096-0.714-0.145-1.263-0.145h-1.995V57.666z"></path> <path fill="#424142" d="M280.176,58.684v-8.627h1.142v8.627H280.176z"></path> <path fill="#424142" d="M287.502,58.684v-8.627h1.142v7.609h4.249v1.018H287.502z"></path> <path fill="#424142" d="M298.664,58.684v-8.627h1.142v8.627H298.664z"></path> <path fill="#424142" d="M306.061,58.684v-8.627h6.238v1.018h-5.097v2.643h4.773v1.012h-4.773v2.938h5.297v1.018H306.061z"></path> <path fill="#424142" d="M318.312,58.684v-8.627h3.825c0.77,0,1.354,0.077,1.754,0.232c0.4,0.154,0.72,0.428,0.959,0.82 s0.359,0.826,0.359,1.301c0,0.611-0.198,1.128-0.595,1.548c-0.396,0.42-1.008,0.687-1.836,0.8c0.303,0.146,0.532,0.289,0.688,0.43 c0.334,0.307,0.649,0.689,0.948,1.148l1.5,2.348h-1.436l-1.142-1.795c-0.334-0.518-0.608-0.914-0.824-1.189 c-0.216-0.273-0.409-0.467-0.58-0.576c-0.17-0.109-0.344-0.186-0.521-0.229c-0.129-0.027-0.341-0.041-0.636-0.041h-1.324v3.831 H318.312z M319.454,53.863h2.454c0.522,0,0.93-0.053,1.225-0.162c0.294-0.107,0.518-0.279,0.671-0.518 c0.152-0.236,0.229-0.494,0.229-0.773c0-0.408-0.148-0.744-0.444-1.006c-0.297-0.264-0.765-0.395-1.403-0.395h-2.731V53.863z"></path> <path fill="#424142" d="M338.808,58.684v-8.627h6.238v1.018h-5.097v2.643h4.773v1.012h-4.773v2.938h5.297v1.018H338.808z"></path> <path fill="#424142" d="M350.652,55.912l1.077-0.095c0.051,0.432,0.17,0.786,0.356,1.062s0.476,0.5,0.868,0.671 c0.392,0.17,0.833,0.256,1.324,0.256c0.436,0,0.819-0.064,1.153-0.194c0.333-0.13,0.581-0.307,0.744-0.532 s0.244-0.472,0.244-0.738c0-0.271-0.078-0.508-0.235-0.709c-0.157-0.203-0.416-0.372-0.776-0.51 c-0.231-0.09-0.744-0.23-1.536-0.421c-0.793-0.19-1.348-0.37-1.666-0.538c-0.411-0.216-0.719-0.484-0.921-0.804 s-0.303-0.678-0.303-1.073c0-0.436,0.123-0.844,0.371-1.222c0.247-0.378,0.607-0.666,1.082-0.862s1.003-0.294,1.583-0.294 c0.64,0,1.204,0.103,1.692,0.309s0.864,0.509,1.127,0.909s0.404,0.854,0.424,1.359l-1.095,0.082 c-0.059-0.545-0.258-0.957-0.598-1.235c-0.339-0.278-0.84-0.417-1.503-0.417c-0.69,0-1.194,0.126-1.51,0.379 c-0.316,0.253-0.474,0.559-0.474,0.915c0,0.31,0.111,0.565,0.335,0.765c0.22,0.201,0.794,0.406,1.722,0.615 c0.928,0.21,1.564,0.394,1.91,0.551c0.502,0.231,0.872,0.524,1.112,0.879c0.239,0.355,0.358,0.765,0.358,1.228 c0,0.459-0.132,0.892-0.395,1.298s-0.641,0.722-1.133,0.947s-1.046,0.338-1.662,0.338c-0.781,0-1.436-0.113-1.963-0.341 s-0.941-0.569-1.241-1.026C350.826,57.006,350.668,56.488,350.652,55.912z"></path> <path fill="#424142" d="M365.494,58.684v-7.609h-2.843v-1.018h6.839v1.018h-2.854v7.609H365.494z"></path> <path fill="#424142" d="M382.423,58.684v-8.627h1.142v8.627H382.423z"></path> <path fill="#424142" d="M395.952,55.658l1.142,0.289c-0.239,0.938-0.67,1.652-1.292,2.145s-1.382,0.738-2.28,0.738 c-0.93,0-1.687-0.188-2.269-0.567c-0.583-0.378-1.026-0.927-1.33-1.645c-0.305-0.718-0.456-1.489-0.456-2.313 c0-0.898,0.171-1.682,0.515-2.351c0.343-0.669,0.832-1.177,1.466-1.524c0.633-0.348,1.33-0.521,2.092-0.521 c0.863,0,1.589,0.22,2.178,0.659c0.588,0.439,0.998,1.057,1.229,1.854l-1.124,0.265c-0.2-0.628-0.49-1.085-0.871-1.371 s-0.859-0.43-1.436-0.43c-0.663,0-1.218,0.159-1.663,0.478c-0.445,0.316-0.758,0.744-0.938,1.279s-0.271,1.088-0.271,1.656 c0,0.734,0.106,1.375,0.32,1.922s0.547,0.957,0.998,1.227c0.451,0.271,0.939,0.406,1.465,0.406c0.64,0,1.182-0.184,1.625-0.553 S395.795,56.385,395.952,55.658z"></path> <path fill="#424142" d="M402.912,58.684v-8.627h1.142v8.627H402.912z"></path> </g> <g> <path fill="#424142" d="M79.466,43.17c-1.155,0-2.095-0.121-2.822-0.363c-0.726-0.242-1.304-0.587-1.732-1.034 c-0.428-0.446-0.726-0.995-0.894-1.647c-0.168-0.652-0.251-1.406-0.251-2.264c0-0.559,0.028-1.35,0.083-2.374 c0.056-1.024,0.158-2.438,0.308-4.246c0.148-1.806,0.326-4.097,0.531-6.872c0.204-2.774,0.456-6.21,0.754-10.308 c0.037-0.819,0.13-1.303,0.279-1.453c0.112-0.112,0.41-0.167,0.894-0.167h2.179c1.154,0,2.095,0.112,2.821,0.335 c0.726,0.223,1.303,0.559,1.732,1.005c0.428,0.447,0.727,0.987,0.894,1.62c0.167,0.634,0.251,1.341,0.251,2.123 c0,0.559-0.038,1.397-0.112,2.514c-0.075,1.118-0.177,2.636-0.307,4.554c-0.131,1.918-0.308,4.302-0.531,7.151 c-0.224,2.85-0.503,6.285-0.838,10.309c-0.038,0.446-0.131,0.744-0.279,0.893c-0.149,0.15-0.466,0.225-0.95,0.225H79.466z M75.5,5.848c0-1.489,0.54-2.663,1.62-3.52c1.08-0.856,2.533-1.285,4.358-1.285c1.601,0,2.766,0.327,3.492,0.978 c0.727,0.652,1.089,1.518,1.089,2.598c0,1.378-0.512,2.524-1.536,3.436c-1.025,0.913-2.524,1.369-4.498,1.369 C77.008,9.424,75.5,8.232,75.5,5.848z"></path> <path fill="#424142" d="M97.232,33.113c-0.112,1.713-0.243,3.344-0.391,4.889c-0.149,1.545-0.261,2.896-0.335,4.051 c-0.038,0.446-0.131,0.744-0.279,0.893c-0.149,0.15-0.466,0.225-0.95,0.225h-2.011c-1.155,0-2.095-0.121-2.821-0.363 s-1.304-0.587-1.732-1.034c-0.429-0.446-0.727-0.995-0.894-1.647s-0.251-1.406-0.251-2.264c0-0.559,0.028-1.35,0.084-2.374 s0.158-2.438,0.307-4.246c0.148-1.806,0.326-4.097,0.531-6.872c0.205-2.774,0.456-6.21,0.754-10.308 c0.037-0.819,0.13-1.303,0.279-1.453c0.112-0.112,0.41-0.167,0.894-0.167h2.179c1.118,0,2.03,0.131,2.738,0.391 c0.707,0.261,1.285,0.596,1.732,1.006c0.447,0.41,0.763,0.894,0.95,1.453c0.186,0.559,0.298,1.136,0.335,1.732 c1.08-2.012,2.309-3.371,3.688-4.079c1.377-0.707,2.998-1.062,4.86-1.062c1.006,0,1.974,0.093,2.905,0.279 c0.931,0.187,1.769,0.503,2.514,0.95c0.745,0.447,1.377,1.034,1.899,1.76c0.521,0.727,0.894,1.648,1.118,2.766 c1.154-2.16,2.421-3.659,3.799-4.498c1.377-0.838,3.109-1.257,5.196-1.257c1.154,0,2.263,0.121,3.324,0.363 c1.062,0.243,1.983,0.662,2.766,1.257c0.782,0.596,1.405,1.406,1.872,2.43c0.465,1.025,0.698,2.3,0.698,3.827 c0,1.155-0.056,2.57-0.167,4.246c-0.112,1.676-0.243,3.492-0.391,5.447c-0.149,1.955-0.317,3.967-0.503,6.034 c-0.187,2.067-0.335,4.051-0.447,5.95c-0.038,0.41-0.075,0.727-0.112,0.949c-0.038,0.225-0.103,0.392-0.196,0.504 c-0.093,0.111-0.233,0.186-0.419,0.223c-0.187,0.037-0.447,0.057-0.782,0.057h-1.788c-1.192,0-2.161-0.112-2.905-0.336 c-0.746-0.223-1.323-0.539-1.732-0.949c-0.41-0.41-0.698-0.922-0.866-1.537c-0.167-0.614-0.251-1.312-0.251-2.095 c0-0.483,0.028-1.173,0.084-2.067c0.056-0.894,0.13-1.861,0.224-2.905c0.092-1.042,0.186-2.123,0.279-3.24 c0.092-1.118,0.186-2.151,0.279-3.101c0.093-0.95,0.167-1.778,0.224-2.486c0.056-0.707,0.083-1.173,0.083-1.397 c0-0.968-0.195-1.824-0.586-2.57c-0.391-0.745-1.146-1.118-2.263-1.118c-0.969,0-1.807,0.317-2.514,0.95 c-0.708,0.633-1.304,1.508-1.788,2.625c-0.484,1.118-0.875,2.44-1.173,3.967c-0.298,1.528-0.502,3.185-0.614,4.973 c-0.075,1.155-0.167,2.478-0.279,3.967c-0.112,1.49-0.243,3.353-0.391,5.587c-0.038,0.41-0.075,0.727-0.112,0.949 c-0.038,0.225-0.103,0.392-0.196,0.504c-0.093,0.111-0.233,0.186-0.419,0.223c-0.187,0.037-0.447,0.057-0.782,0.057h-1.788 c-1.192,0-2.161-0.112-2.905-0.336c-0.746-0.223-1.323-0.539-1.732-0.949c-0.41-0.41-0.698-0.922-0.866-1.537 c-0.167-0.614-0.251-1.312-0.251-2.095c0-0.745,0.065-1.834,0.196-3.269c0.13-1.434,0.26-2.924,0.391-4.47 c0.13-1.545,0.26-3.017,0.391-4.414c0.13-1.396,0.195-2.411,0.195-3.045c0-0.968-0.195-1.824-0.586-2.57 c-0.391-0.745-1.146-1.118-2.263-1.118c-1.006,0-1.863,0.373-2.57,1.118c-0.708,0.746-1.294,1.742-1.76,2.989 c-0.466,1.249-0.838,2.71-1.117,4.386C97.54,29.537,97.344,31.289,97.232,33.113z"></path> <path fill="#424142" d="M145.783,33.113c-0.112,1.713-0.243,3.344-0.391,4.889c-0.149,1.545-0.261,2.896-0.335,4.051 c-0.038,0.446-0.131,0.744-0.279,0.893c-0.149,0.15-0.466,0.225-0.95,0.225h-2.011c-1.155,0-2.095-0.121-2.821-0.363 s-1.304-0.587-1.732-1.034c-0.429-0.446-0.727-0.995-0.894-1.647s-0.251-1.406-0.251-2.264c0-0.559,0.028-1.35,0.084-2.374 s0.158-2.438,0.307-4.246c0.148-1.806,0.326-4.097,0.531-6.872c0.205-2.774,0.456-6.21,0.754-10.308 c0.037-0.819,0.13-1.303,0.279-1.453c0.112-0.112,0.41-0.167,0.894-0.167h2.179c1.118,0,2.03,0.131,2.738,0.391 c0.707,0.261,1.285,0.596,1.732,1.006c0.447,0.41,0.763,0.894,0.95,1.453c0.186,0.559,0.298,1.136,0.335,1.732 c1.08-2.012,2.309-3.371,3.688-4.079c1.377-0.707,2.998-1.062,4.86-1.062c1.006,0,1.974,0.093,2.905,0.279 c0.931,0.187,1.769,0.503,2.514,0.95c0.745,0.447,1.377,1.034,1.899,1.76c0.521,0.727,0.894,1.648,1.118,2.766 c1.154-2.16,2.421-3.659,3.799-4.498c1.377-0.838,3.109-1.257,5.196-1.257c1.154,0,2.263,0.121,3.324,0.363 c1.062,0.243,1.983,0.662,2.766,1.257c0.782,0.596,1.405,1.406,1.872,2.43c0.465,1.025,0.698,2.3,0.698,3.827 c0,1.155-0.056,2.57-0.167,4.246c-0.112,1.676-0.243,3.492-0.391,5.447c-0.149,1.955-0.317,3.967-0.503,6.034 c-0.187,2.067-0.335,4.051-0.447,5.95c-0.038,0.41-0.075,0.727-0.112,0.949c-0.038,0.225-0.103,0.392-0.196,0.504 c-0.093,0.111-0.233,0.186-0.419,0.223c-0.187,0.037-0.447,0.057-0.782,0.057h-1.788c-1.192,0-2.161-0.112-2.905-0.336 c-0.746-0.223-1.323-0.539-1.732-0.949c-0.41-0.41-0.698-0.922-0.866-1.537c-0.167-0.614-0.251-1.312-0.251-2.095 c0-0.483,0.028-1.173,0.084-2.067c0.056-0.894,0.13-1.861,0.224-2.905c0.092-1.042,0.186-2.123,0.279-3.24 c0.092-1.118,0.186-2.151,0.279-3.101c0.093-0.95,0.167-1.778,0.224-2.486c0.056-0.707,0.083-1.173,0.083-1.397 c0-0.968-0.195-1.824-0.586-2.57c-0.391-0.745-1.146-1.118-2.263-1.118c-0.969,0-1.807,0.317-2.514,0.95 c-0.708,0.633-1.304,1.508-1.788,2.625c-0.484,1.118-0.875,2.44-1.173,3.967c-0.298,1.528-0.502,3.185-0.614,4.973 c-0.075,1.155-0.167,2.478-0.279,3.967c-0.112,1.49-0.243,3.353-0.391,5.587c-0.038,0.41-0.075,0.727-0.112,0.949 c-0.038,0.225-0.103,0.392-0.196,0.504c-0.093,0.111-0.233,0.186-0.419,0.223c-0.187,0.037-0.447,0.057-0.782,0.057h-1.788 c-1.192,0-2.161-0.112-2.905-0.336c-0.746-0.223-1.323-0.539-1.732-0.949c-0.41-0.41-0.698-0.922-0.866-1.537 c-0.167-0.614-0.251-1.312-0.251-2.095c0-0.745,0.065-1.834,0.196-3.269c0.13-1.434,0.26-2.924,0.391-4.47 c0.13-1.545,0.26-3.017,0.391-4.414c0.13-1.396,0.195-2.411,0.195-3.045c0-0.968-0.195-1.824-0.586-2.57 c-0.391-0.745-1.146-1.118-2.263-1.118c-1.006,0-1.863,0.373-2.57,1.118c-0.708,0.746-1.294,1.742-1.76,2.989 c-0.466,1.249-0.838,2.71-1.117,4.386C146.09,29.537,145.895,31.289,145.783,33.113z"></path> <path fill="#424142" d="M197.183,43.729c-2.57,0-4.703-0.363-6.397-1.09c-1.695-0.727-3.045-1.723-4.05-2.989 c-1.006-1.266-1.714-2.746-2.123-4.441c-0.41-1.694-0.615-3.511-0.615-5.447c0-2.235,0.27-4.422,0.81-6.565 c0.54-2.141,1.461-4.05,2.766-5.727c1.303-1.676,3.026-3.026,5.168-4.051c2.142-1.024,4.813-1.536,8.018-1.536 c4.692,0,8.054,1.145,10.085,3.436c2.029,2.291,3.045,5.503,3.045,9.638c0,1.155-0.084,2.43-0.252,3.827 c-0.168,1.397-0.484,2.786-0.949,4.163c-0.467,1.379-1.1,2.719-1.9,4.022s-1.816,2.458-3.045,3.464s-2.709,1.807-4.441,2.402 C201.569,43.43,199.529,43.729,197.183,43.729z M199.809,19.313c-1.416,0-2.542,0.363-3.38,1.089 c-0.838,0.727-1.472,1.602-1.899,2.626c-0.429,1.025-0.708,2.104-0.838,3.24c-0.131,1.137-0.195,2.095-0.195,2.877 c0,2.458,0.391,4.266,1.173,5.419c0.782,1.155,1.899,1.731,3.352,1.731c1.303,0,2.375-0.408,3.212-1.229 c0.838-0.818,1.489-1.807,1.956-2.961c0.465-1.154,0.782-2.365,0.95-3.632c0.168-1.266,0.252-2.327,0.252-3.185 c0-1.862-0.346-3.324-1.034-4.386C202.667,19.844,201.485,19.313,199.809,19.313z"></path> <path fill="#424142" d="M229.028,43.729c-2.868,0-5.14-0.42-6.816-1.258c-1.676-0.838-2.942-1.89-3.799-3.156 c-0.857-1.266-1.396-2.635-1.62-4.106s-0.336-2.821-0.336-4.051c0-0.483,0.047-1.433,0.141-2.849 c0.092-1.415,0.214-3.054,0.362-4.917c0.148-1.862,0.298-3.846,0.447-5.95c0.148-2.104,0.298-4.097,0.447-5.978 c0.148-1.88,0.27-3.548,0.363-5c0.092-1.453,0.14-2.458,0.14-3.017c0-0.819,0.056-1.293,0.167-1.425 c0.112-0.13,0.447-0.195,1.006-0.195h2.179c1.118,0,2.048,0.131,2.794,0.391c0.744,0.261,1.341,0.615,1.788,1.062 c0.446,0.447,0.763,0.959,0.949,1.536c0.187,0.578,0.279,1.202,0.279,1.872c0,0.634-0.065,1.863-0.195,3.687 c-0.131,1.826-0.289,3.967-0.475,6.425c0.968-1.676,2.067-2.914,3.296-3.715c1.229-0.801,2.85-1.201,4.86-1.201 c3.39,0,5.987,1.117,7.794,3.352s2.71,5.569,2.71,10.001c0,1.155-0.084,2.421-0.251,3.799c-0.168,1.378-0.467,2.747-0.895,4.106 c-0.429,1.36-1.024,2.682-1.787,3.967c-0.765,1.285-1.761,2.412-2.989,3.381c-1.229,0.969-2.71,1.75-4.441,2.346 C233.414,43.43,231.375,43.729,229.028,43.729z M231.542,19.313c-1.341,0-2.394,0.354-3.156,1.062 c-0.764,0.708-1.351,1.564-1.76,2.57c-0.41,1.006-0.671,2.077-0.782,3.213c-0.112,1.136-0.168,2.132-0.168,2.989 c0,2.571,0.354,4.405,1.062,5.503c0.707,1.099,1.769,1.647,3.185,1.647c1.341,0,2.394-0.418,3.157-1.256 c0.763-0.839,1.341-1.835,1.731-2.99c0.392-1.153,0.643-2.327,0.755-3.519c0.111-1.192,0.167-2.124,0.167-2.794 c0-2.085-0.316-3.678-0.949-4.777C234.149,19.863,233.069,19.313,231.542,19.313z"></path> <path fill="#424142" d="M253.666,43.17c-1.154,0-2.095-0.121-2.821-0.363s-1.304-0.587-1.731-1.034 c-0.429-0.446-0.727-0.995-0.895-1.647c-0.167-0.652-0.251-1.406-0.251-2.264c0-0.559,0.027-1.35,0.084-2.374 c0.056-1.024,0.157-2.438,0.307-4.246c0.148-1.806,0.326-4.097,0.531-6.872c0.204-2.774,0.455-6.21,0.754-10.308 c0.037-0.819,0.13-1.303,0.279-1.453c0.112-0.112,0.409-0.167,0.895-0.167h2.179c1.154,0,2.095,0.112,2.821,0.335 c0.727,0.223,1.304,0.559,1.732,1.005c0.428,0.447,0.726,0.987,0.894,1.62c0.168,0.634,0.251,1.341,0.251,2.123 c0,0.559-0.037,1.397-0.111,2.514c-0.075,1.118-0.178,2.636-0.308,4.554c-0.131,1.918-0.307,4.302-0.53,7.151 s-0.503,6.285-0.838,10.309c-0.038,0.446-0.131,0.744-0.279,0.893c-0.149,0.15-0.467,0.225-0.95,0.225H253.666z M249.699,5.848 c0-1.489,0.54-2.663,1.621-3.52c1.079-0.856,2.532-1.285,4.357-1.285c1.601,0,2.766,0.327,3.492,0.978 c0.726,0.652,1.089,1.518,1.089,2.598c0,1.378-0.512,2.524-1.536,3.436c-1.025,0.913-2.523,1.369-4.498,1.369 C251.208,9.424,249.699,8.232,249.699,5.848z"></path> <path fill="#424142" d="M268.248,43.672c-2.31,0-3.967-0.614-4.973-1.844c-1.005-1.229-1.508-3.258-1.508-6.09 c0-0.446,0.027-1.006,0.083-1.676c0.057-0.67,0.131-1.536,0.224-2.598s0.214-2.375,0.363-3.939 c0.148-1.564,0.308-3.464,0.475-5.699c0.168-2.235,0.354-4.861,0.56-7.878c0.204-3.017,0.419-6.518,0.643-10.503 c0.036-0.819,0.13-1.303,0.279-1.453c0.111-0.112,0.409-0.167,0.894-0.167h2.179c1.117,0,2.048,0.131,2.794,0.391 c0.744,0.261,1.341,0.615,1.787,1.062c0.447,0.447,0.764,0.959,0.95,1.536c0.186,0.578,0.279,1.183,0.279,1.816 c0,0.746-0.047,1.816-0.14,3.212c-0.094,1.397-0.215,2.971-0.363,4.721c-0.149,1.751-0.299,3.576-0.446,5.475 c-0.149,1.9-0.299,3.715-0.447,5.448c-0.149,1.732-0.271,3.288-0.363,4.665c-0.094,1.378-0.14,2.421-0.14,3.128 c0,0.97,0.176,1.657,0.53,2.067c0.354,0.41,0.735,0.698,1.146,0.865c0.409,0.168,0.791,0.28,1.146,0.336 c0.354,0.056,0.531,0.178,0.531,0.363c0,0.82-0.094,1.63-0.279,2.43c-0.188,0.802-0.522,1.528-1.006,2.18 c-0.484,0.652-1.146,1.173-1.983,1.564C270.623,43.477,269.552,43.672,268.248,43.672z"></path> <path fill="#424142" d="M282.55,43.17c-1.154,0-2.095-0.121-2.821-0.363s-1.304-0.587-1.731-1.034 c-0.429-0.446-0.727-0.995-0.895-1.647c-0.167-0.652-0.251-1.406-0.251-2.264c0-0.559,0.027-1.35,0.084-2.374 c0.056-1.024,0.157-2.438,0.307-4.246c0.148-1.806,0.326-4.097,0.531-6.872c0.204-2.774,0.455-6.21,0.754-10.308 c0.037-0.819,0.13-1.303,0.279-1.453c0.112-0.112,0.409-0.167,0.895-0.167h2.179c1.154,0,2.095,0.112,2.821,0.335 c0.727,0.223,1.304,0.559,1.732,1.005c0.428,0.447,0.726,0.987,0.894,1.62c0.168,0.634,0.251,1.341,0.251,2.123 c0,0.559-0.037,1.397-0.111,2.514c-0.075,1.118-0.178,2.636-0.308,4.554c-0.131,1.918-0.307,4.302-0.53,7.151 s-0.503,6.285-0.838,10.309c-0.038,0.446-0.131,0.744-0.279,0.893c-0.149,0.15-0.467,0.225-0.95,0.225H282.55z M278.583,5.848 c0-1.489,0.54-2.663,1.621-3.52c1.079-0.856,2.532-1.285,4.357-1.285c1.601,0,2.766,0.327,3.492,0.978 c0.726,0.652,1.089,1.518,1.089,2.598c0,1.378-0.512,2.524-1.536,3.436c-1.025,0.913-2.523,1.369-4.498,1.369 C280.092,9.424,278.583,8.232,278.583,5.848z"></path> <path fill="#424142" d="M303.557,43.729c-1.639,0-3.268-0.205-4.889-0.615c-1.62-0.409-3.072-1.117-4.357-2.123 s-2.338-2.346-3.156-4.022c-0.82-1.676-1.229-3.78-1.229-6.313c0-0.931,0.074-2.048,0.224-3.353 c0.148-1.303,0.438-2.644,0.866-4.022c0.428-1.377,1.023-2.747,1.787-4.106c0.764-1.359,1.76-2.579,2.989-3.66 c1.229-1.08,2.719-1.956,4.47-2.626c1.75-0.67,3.836-1.005,6.258-1.005c1.936,0,3.575,0.224,4.916,0.67s2.421,1.053,3.24,1.816 c0.819,0.764,1.415,1.648,1.788,2.654c0.372,1.005,0.559,2.086,0.559,3.24c0,1.714-0.345,3.167-1.033,4.358 c-0.689,1.192-1.584,2.188-2.682,2.989c-1.1,0.801-2.319,1.424-3.66,1.872c-1.341,0.447-2.663,0.792-3.967,1.033 c-1.304,0.243-2.505,0.391-3.604,0.447c-1.099,0.056-1.946,0.083-2.542,0.083c0,0.709,0.103,1.407,0.308,2.096 c0.204,0.689,0.512,1.295,0.922,1.816c0.409,0.521,0.949,0.949,1.62,1.285c0.67,0.334,1.489,0.502,2.458,0.502 s1.723-0.158,2.263-0.475s0.978-0.67,1.313-1.062c0.335-0.392,0.623-0.745,0.865-1.062s0.568-0.475,0.979-0.475 c0.186,0,0.511,0.047,0.978,0.139c0.465,0.094,0.94,0.289,1.425,0.588c0.483,0.298,0.912,0.707,1.285,1.229 c0.371,0.521,0.559,1.192,0.559,2.012c0,1.08-0.336,2.011-1.006,2.793c-0.671,0.782-1.536,1.416-2.598,1.9 s-2.245,0.838-3.548,1.061C306.052,43.616,304.786,43.729,303.557,43.729z M304.618,19.313c-0.819,0-1.518,0.233-2.095,0.698 c-0.578,0.466-1.062,1.053-1.453,1.76c-0.391,0.708-0.689,1.49-0.894,2.347c-0.205,0.857-0.363,1.676-0.475,2.458 c2.309-0.037,4.181-0.428,5.615-1.173c1.433-0.745,2.15-1.806,2.15-3.185c0-0.745-0.233-1.415-0.698-2.011 C306.304,19.611,305.587,19.313,304.618,19.313z"></path> </g> <path fill="#F4AD42" d="M368.737,35.756h-16.368v-1.264c0-1.176,0.436-1.609,1.828-2.002l8.971-2.394 c3.875-1.046,5.789-3.875,5.789-8.537v-2.608c0-5.01-3.704-8.229-10.061-8.229h-4.615c-6.396,0-9.88,3.002-9.88,8.447v2.828h7.833 v-1.787c0-2.306,0.961-3.09,3.616-3.09h1.396c2.741,0,3.658,0.784,3.658,3.09v1.264c0,1.658-0.655,2.179-2.442,2.699l-9.228,2.787 c-3.441,1.005-5.139,3.746-5.139,8.271v7.535h24.642V35.756z"></path> <g> <path fill="#F5AD42" d="M391.092,10.721h3.786c8.403,0,11.104,3.569,11.104,12.931v6.574c0,9.362-2.701,12.932-11.104,12.932 h-3.786c-8.449,0-11.104-3.57-11.104-12.932v-6.574C379.987,14.291,382.643,10.721,391.092,10.721z M388.131,29.966 c0,4.788,0.391,6.137,4.178,6.137h1.353c3.872,0,4.132-1.391,4.132-6.137v-6.056c0-4.742-0.26-6.139-4.132-6.139h-1.353 c-3.787,0-4.178,1.35-4.178,6.139V29.966z"></path> </g> <g> <g> <polygon fill="#F2A040" points="361.756,42.766 368.695,42.766 368.695,35.822 "></polygon> </g> <g> <path fill="#F2A040" d="M394.837,10.721h-1.04l-13.852,13.852v5.653c0,9.362,2.653,12.932,11.104,12.932h3.787 c8.402,0,11.102-3.57,11.102-12.932v-6.574C405.938,14.291,403.239,10.721,394.837,10.721z M397.751,29.966 c0,4.747-0.259,6.137-4.132,6.137h-1.354c-3.784,0-4.176-1.35-4.176-6.137v-6.056c0-4.789,0.392-6.139,4.176-6.139h1.354 c3.873,0,4.132,1.396,4.132,6.139V29.966z"></path> </g> </g> <g> <g> <g> <path fill="#F5AD42" d="M61.153,52.615c0,4.586-3.716,8.303-8.302,8.303H30.543H8.228c-4.586,0-8.302-3.717-8.302-8.303V7.992 c0-4.585,3.716-8.303,8.302-8.303h22.315h22.309c4.586,0,8.302,3.718,8.302,8.303V52.615z"></path> </g> <g> <path fill="#F2A040" d="M61.153,52.615c0,4.586-3.716,8.303-8.302,8.303H30.543V-0.311h22.309c4.586,0,8.302,3.718,8.302,8.303 V52.615z"></path> </g> </g> </g> <path fill="#FFFFFF" d="M51.744,29.732l-6.123-5.527c-0.339-0.457-0.764-0.839-1.254-1.132L30.54,10.589L16.713,23.071 c-0.493,0.294-0.921,0.679-1.261,1.138l-6.118,5.522h5.26v15.959c0,2.391,1.936,4.324,4.326,4.324h11.621H42.16 c2.388,0,4.323-1.934,4.323-4.324V29.732H51.744z"></path> <path fill="#424142" d="M340.401,21.997v-2.828c0-1.971,0.355-3.746,1.021-5.302c-0.127-0.139-0.237-0.297-0.377-0.42 c-0.597-0.521-1.258-0.913-1.983-1.173c-0.727-0.26-1.444-0.391-2.151-0.391c-0.597,0-1.248,0.083-1.955,0.251 c-0.708,0.167-1.397,0.447-2.067,0.838c-0.671,0.391-1.313,0.894-1.928,1.508c-0.614,0.615-1.146,1.351-1.592,2.207 c-0.075-0.559-0.215-1.098-0.42-1.62c-0.205-0.521-0.53-0.978-0.978-1.369c-0.446-0.391-1.024-0.699-1.731-0.922 c-0.708-0.224-1.584-0.335-2.626-0.335h-2.179c-0.708,0-1.1,0.541-1.174,1.62c-0.299,4.098-0.55,7.534-0.754,10.308 c-0.205,2.775-0.383,5.066-0.531,6.872c-0.149,1.808-0.251,3.222-0.307,4.246c-0.057,1.024-0.084,1.815-0.084,2.374 c0,0.857,0.084,1.611,0.251,2.264c0.168,0.652,0.466,1.201,0.895,1.647c0.428,0.447,1.005,0.792,1.731,1.034 s1.667,0.363,2.821,0.363h2.012c0.298,0,0.577-0.094,0.838-0.279c0.261-0.187,0.392-0.466,0.392-0.838 c0-0.336,0.036-1.043,0.111-2.123c0.074-1.08,0.168-2.319,0.279-3.717c0.111-1.396,0.232-2.849,0.363-4.357 c0.13-1.508,0.232-2.858,0.308-4.05c0.186-2.718,0.623-4.758,1.312-6.118c0.688-1.359,1.555-2.04,2.598-2.04 c0.671,0,1.118,0.261,1.341,0.782c0.224,0.522,0.336,1.193,0.336,2.012c0,0.447-0.02,0.875-0.057,1.285 c-0.037,0.411-0.056,0.857-0.056,1.341c0,0.149,0.093,0.271,0.279,0.363c0.187,0.093,0.41,0.167,0.671,0.224 c0.26,0.056,0.53,0.093,0.81,0.112c0.279,0.019,0.531,0.028,0.755,0.028c0.968,0,1.853-0.196,2.653-0.587 c0.646-0.315,1.191-0.753,1.68-1.263C340.587,23.368,340.401,22.704,340.401,21.997z"></path> <g> <path fill="#F2A040" d="M371.209,35.717h6.966v7.049h-6.966V35.717z"></path> </g> </g> </svg> 